<mxfile host="app.diagrams.net" modified="2024-03-29T23:23:14.216Z" agent="Mozilla/5.0 (Macintosh; Intel Mac OS X 10_15_7) AppleWebKit/537.36 (KHTML, like Gecko) Chrome/123.0.0.0 Safari/537.36" version="22.1.18" etag="MRoAkzOb26puxSZy7VbH" type="github">
  <diagram name="第 1 页" id="NuoVDIIyU_ujBB4qoZcn">
    <mxGraphModel>
      <root>
        <mxCell id="0" />
        <mxCell id="1" parent="0" />
      </root>
    </mxGraphModel>
  </diagram>
</mxfile>
